<?xml version="1.0" encoding="utf-8"?>
<!-- Generator: Adobe Illustrator 19.2.0, SVG Export Plug-In . SVG Version: 6.00 Build 0)  -->
<svg version="1.1" id="Layer_1" xmlns:sketch="http://www.bohemiancoding.com/sketch/ns"
	 xmlns="http://www.w3.org/2000/svg" xmlns:xlink="http://www.w3.org/1999/xlink" x="0px" y="0px" viewBox="0 0 1652 214"
	 style="enable-background:new 0 0 1652 214;" xml:space="preserve">
<style type="text/css">
	.st0{fill:#FFFFFF;}
	.st1{fill:#FF803B;}
	.st2{font-family:'AdelleSans-Regular';}
	.st3{font-size:108.284px;}
	.st4{font-size:55.4927px;}
</style>
<path id="Path" class="st0" d="M76,178.5V42.1h43.9V12H0v30.1h43.9v136.3H76V178.5z"/>
<path id="Path_1_" class="st0" d="M176.9,109.6h61.5V80.9h-61.5V42.1h65.6V12h-98.7v166.5h102.8v-30.1H177v-38.8H176.9z"/>
<path id="Path_2_" class="st1" d="M322.4,12c-28.4,0-50,13.5-53.4,46l29.1,5c2-15.6,7.4-24.1,21-24.1c12.2,0,17.6,6.4,17.6,17
	c0,17-11.5,29.8-31.1,53.1l-33.1,41.1v28.3h99.4v-29.8h-61.5V148l25.7-29.8c23-26.9,33.8-41.8,33.8-65.2
	C369.1,27.6,353.5,12,322.4,12L322.4,12L322.4,12z"/>
<text transform="matrix(1.003 0 0 1 452.0254 177.209)" class="st0 st2 st3">The Experience Engine</text>
<text transform="matrix(1.003 0 0 1 1566.8516 137.4414)" class="st0 st2 st4">TM</text>
</svg>
