<?xml version="1.0" encoding="utf-8"?>
<!-- Generator: Adobe Illustrator 19.2.0, SVG Export Plug-In . SVG Version: 6.00 Build 0)  -->
<svg version="1.1" id="Layer_1" xmlns:sketch="http://www.bohemiancoding.com/sketch/ns"
	 xmlns="http://www.w3.org/2000/svg" xmlns:xlink="http://www.w3.org/1999/xlink" x="0px" y="0px" viewBox="0 0 58 25"
	 style="enable-background:new 0 0 58 25;" xml:space="preserve">
<style type="text/css">
	.st0{fill:#FFFFFF;}
	.st1{fill:#FF8030;}
</style>
<title>TE2 logo</title>
<desc>Created with Sketch.</desc>
<g id="Map" sketch:type="MSPage">
	<g id="POI-tooltip" transform="translate(-36.000000, -13.000000)" sketch:type="MSArtboardGroup">
		<g id="Top-Nav-map" sketch:type="MSLayerGroup">
			<g id="TE2-logo" transform="translate(36.000000, 13.000000)" sketch:type="MSShapeGroup">
				<path id="Path" class="st0" d="M11.9,24.5v-19h6.7V1.3H0.3v4.2H7v19H11.9z"/>
				<path id="Path_1_" class="st0" d="M28.1,14.9h9.1v-4h-9.1V5.5h9.7V1.3H23.2v23.2h15.2v-4.2H28.1V14.9z"/>
				<path id="Path_2_" class="st1" d="M50.1,0.9c-4.2,0-7.4,1.9-7.9,6.5l4.3,0.7c0.3-2.2,1.1-3.4,3.1-3.4c1.8,0,2.6,0.9,2.6,2.4
					c0,2.4-1.7,4.2-4.6,7.5l-4.9,5.8v4h14.7v-4.2h-9.1v-0.1l3.8-4.2c3.4-3.8,5-5.9,5-9.2C57,3.1,54.7,0.9,50.1,0.9L50.1,0.9z"/>
			</g>
		</g>
	</g>
</g>
</svg>
