<?xml version="1.0" encoding="utf-8"?>
<!-- Generator: Adobe Illustrator 19.2.0, SVG Export Plug-In . SVG Version: 6.00 Build 0)  -->
<svg version="1.1" id="Layer_1" xmlns:sketch="http://www.bohemiancoding.com/sketch/ns"
	 xmlns="http://www.w3.org/2000/svg" xmlns:xlink="http://www.w3.org/1999/xlink" x="0px" y="0px" viewBox="0 0 600 265"
	 style="enable-background:new 0 0 600 265;" xml:space="preserve">
<style type="text/css">
	.st0{fill:#333333;}
	.st1{font-family:'AdelleSans-Regular';}
	.st2{font-size:54.1418px;}
	.st3{fill:#FF803B;}
	.st4{fill:none;}
	.st5{font-size:27.7462px;}
</style>
<text transform="matrix(1.003 0 0 1 3.417969e-03 249.1904)" class="st0 st1 st2">The Experience Engine</text>
<g id="TE2_logo_white_bg" sketch:type="MSShapeGroup">
	<path id="Path" class="st0" d="M76,166.5V30.1h43.9V0H0v30.1h43.9v136.3H76L76,166.5z"/>
	<path id="Path_1_" class="st0" d="M176.9,97.6h61.5V68.9h-61.5V30.1h65.6V0h-98.7v166.5h102.8v-30.1h-69.6V97.6L176.9,97.6z"/>
	<path id="Path_2_" class="st3" d="M322.4,0c-28.4,0-50,13.5-53.4,46l29.1,5c2-15.6,7.4-24.1,21-24.1c12.2,0,17.6,6.4,17.6,17
		c0,17-11.5,29.8-31.1,53.1l-33.1,41.1v28.3h99.4v-29.8h-61.5V136l25.7-29.8c23-26.9,33.8-41.8,33.8-65.2
		C369.1,15.6,353.5,0,322.4,0L322.4,0L322.4,0z"/>
</g>
<rect x="557.4" y="208.4" class="st4" width="42.6" height="24.8"/>
<text transform="matrix(1.003 0 0 1 557.4141 229.3096)" class="st0 st1 st5">TM</text>
</svg>
